<svg width="251" height="596" viewBox="0 0 251 596" fill="none" xmlns="http://www.w3.org/2000/svg">
<g filter="url(#filter0_d_1_1899)">
<path d="M13 72C13 38.3106 40.3106 11 74 11H219C229.493 11 238 19.5066 238 30V546C238 565.33 222.33 581 203 581H48C28.67 581 13 565.33 13 546V72Z" fill="url(#paint0_linear_1_1899)"/>
<path d="M89.9391 35V27.41L86.8041 33.17H85.8141L82.6641 27.41V35H80.9841V24.35H82.7841L86.3091 30.86L89.8341 24.35H91.6341V35H89.9391ZM98.269 35.15C97.649 35.15 97.094 35.045 96.604 34.835C96.114 34.615 95.689 34.315 95.329 33.935C94.979 33.555 94.709 33.125 94.519 32.645C94.329 32.155 94.234 31.635 94.234 31.085C94.234 30.535 94.329 30.015 94.519 29.525C94.709 29.035 94.979 28.605 95.329 28.235C95.689 27.855 96.114 27.56 96.604 27.35C97.104 27.13 97.659 27.02 98.269 27.02C98.879 27.02 99.429 27.13 99.919 27.35C100.419 27.56 100.844 27.855 101.194 28.235C101.554 28.605 101.829 29.035 102.019 29.525C102.209 30.015 102.304 30.535 102.304 31.085C102.304 31.635 102.209 32.155 102.019 32.645C101.829 33.125 101.554 33.555 101.194 33.935C100.844 34.315 100.419 34.615 99.919 34.835C99.429 35.045 98.879 35.15 98.269 35.15ZM95.929 31.1C95.929 31.6 96.034 32.05 96.244 32.45C96.454 32.85 96.734 33.165 97.084 33.395C97.434 33.625 97.829 33.74 98.269 33.74C98.699 33.74 99.089 33.625 99.439 33.395C99.799 33.155 100.084 32.835 100.294 32.435C100.504 32.025 100.609 31.575 100.609 31.085C100.609 30.585 100.504 30.135 100.294 29.735C100.084 29.335 99.799 29.02 99.439 28.79C99.089 28.55 98.699 28.43 98.269 28.43C97.829 28.43 97.434 28.55 97.084 28.79C96.734 29.03 96.454 29.35 96.244 29.75C96.034 30.14 95.929 30.59 95.929 31.1ZM107.607 35.15C106.947 35.15 106.322 35.045 105.732 34.835C105.142 34.615 104.637 34.29 104.217 33.86L104.832 32.75C105.282 33.15 105.732 33.44 106.182 33.62C106.642 33.8 107.097 33.89 107.547 33.89C108.007 33.89 108.382 33.805 108.672 33.635C108.962 33.455 109.107 33.195 109.107 32.855C109.107 32.605 109.032 32.42 108.882 32.3C108.732 32.18 108.512 32.075 108.222 31.985C107.942 31.895 107.602 31.795 107.202 31.685C106.642 31.515 106.172 31.34 105.792 31.16C105.412 30.97 105.127 30.74 104.937 30.47C104.747 30.2 104.652 29.855 104.652 29.435C104.652 28.925 104.782 28.49 105.042 28.13C105.302 27.77 105.662 27.495 106.122 27.305C106.592 27.115 107.132 27.02 107.742 27.02C108.312 27.02 108.837 27.11 109.317 27.29C109.807 27.46 110.237 27.73 110.607 28.1L109.902 29.195C109.552 28.875 109.192 28.64 108.822 28.49C108.462 28.34 108.072 28.265 107.652 28.265C107.412 28.265 107.182 28.295 106.962 28.355C106.742 28.405 106.557 28.505 106.407 28.655C106.267 28.795 106.197 28.995 106.197 29.255C106.197 29.465 106.257 29.635 106.377 29.765C106.497 29.895 106.677 30.005 106.917 30.095C107.157 30.185 107.452 30.285 107.802 30.395C108.412 30.575 108.932 30.755 109.362 30.935C109.792 31.105 110.122 31.33 110.352 31.61C110.592 31.88 110.712 32.255 110.712 32.735C110.712 33.495 110.427 34.09 109.857 34.52C109.297 34.94 108.547 35.15 107.607 35.15ZM117.586 34.595C117.446 34.665 117.271 34.74 117.061 34.82C116.851 34.9 116.611 34.97 116.341 35.03C116.081 35.09 115.811 35.12 115.531 35.12C115.191 35.12 114.876 35.06 114.586 34.94C114.296 34.82 114.061 34.63 113.881 34.37C113.711 34.1 113.626 33.755 113.626 33.335V28.43H112.591V27.155H113.626V24.575H115.276V27.155H116.986V28.43H115.276V32.81C115.296 33.08 115.381 33.28 115.531 33.41C115.691 33.54 115.886 33.605 116.116 33.605C116.346 33.605 116.566 33.565 116.776 33.485C116.986 33.405 117.141 33.34 117.241 33.29L117.586 34.595ZM124.745 35V24.35H129.215C129.695 24.35 130.135 24.45 130.535 24.65C130.935 24.85 131.285 25.115 131.585 25.445C131.885 25.775 132.115 26.145 132.275 26.555C132.435 26.965 132.515 27.385 132.515 27.815C132.515 28.405 132.38 28.97 132.11 29.51C131.85 30.04 131.475 30.47 130.985 30.8C130.505 31.13 129.945 31.295 129.305 31.295H126.425V35H124.745ZM126.425 29.81H129.2C129.52 29.81 129.8 29.725 130.04 29.555C130.28 29.375 130.465 29.135 130.595 28.835C130.735 28.535 130.805 28.195 130.805 27.815C130.805 27.425 130.725 27.08 130.565 26.78C130.405 26.48 130.195 26.25 129.935 26.09C129.685 25.92 129.41 25.835 129.11 25.835H126.425V29.81ZM138.309 35.15C137.689 35.15 137.134 35.045 136.644 34.835C136.154 34.615 135.729 34.315 135.369 33.935C135.019 33.555 134.749 33.125 134.559 32.645C134.369 32.155 134.274 31.635 134.274 31.085C134.274 30.535 134.369 30.015 134.559 29.525C134.749 29.035 135.019 28.605 135.369 28.235C135.729 27.855 136.154 27.56 136.644 27.35C137.144 27.13 137.699 27.02 138.309 27.02C138.919 27.02 139.469 27.13 139.959 27.35C140.459 27.56 140.884 27.855 141.234 28.235C141.594 28.605 141.869 29.035 142.059 29.525C142.249 30.015 142.344 30.535 142.344 31.085C142.344 31.635 142.249 32.155 142.059 32.645C141.869 33.125 141.594 33.555 141.234 33.935C140.884 34.315 140.459 34.615 139.959 34.835C139.469 35.045 138.919 35.15 138.309 35.15ZM135.969 31.1C135.969 31.6 136.074 32.05 136.284 32.45C136.494 32.85 136.774 33.165 137.124 33.395C137.474 33.625 137.869 33.74 138.309 33.74C138.739 33.74 139.129 33.625 139.479 33.395C139.839 33.155 140.124 32.835 140.334 32.435C140.544 32.025 140.649 31.575 140.649 31.085C140.649 30.585 140.544 30.135 140.334 29.735C140.124 29.335 139.839 29.02 139.479 28.79C139.129 28.55 138.739 28.43 138.309 28.43C137.869 28.43 137.474 28.55 137.124 28.79C136.774 29.03 136.494 29.35 136.284 29.75C136.074 30.14 135.969 30.59 135.969 31.1ZM149.312 35.15C148.682 35.15 148.127 35 147.647 34.7C147.167 34.4 146.787 34.01 146.507 33.53V38.195H144.857V27.155H146.312V28.565C146.612 28.095 147.002 27.72 147.482 27.44C147.962 27.16 148.497 27.02 149.087 27.02C149.627 27.02 150.122 27.13 150.572 27.35C151.022 27.56 151.412 27.855 151.742 28.235C152.072 28.615 152.327 29.05 152.507 29.54C152.697 30.02 152.792 30.53 152.792 31.07C152.792 31.82 152.642 32.505 152.342 33.125C152.052 33.745 151.642 34.24 151.112 34.61C150.592 34.97 149.992 35.15 149.312 35.15ZM148.772 33.74C149.122 33.74 149.437 33.665 149.717 33.515C150.007 33.365 150.252 33.165 150.452 32.915C150.662 32.665 150.822 32.38 150.932 32.06C151.042 31.74 151.097 31.41 151.097 31.07C151.097 30.71 151.037 30.37 150.917 30.05C150.797 29.73 150.622 29.45 150.392 29.21C150.172 28.97 149.912 28.78 149.612 28.64C149.322 28.5 149.002 28.43 148.652 28.43C148.442 28.43 148.222 28.47 147.992 28.55C147.762 28.63 147.547 28.74 147.347 28.88C147.147 29.02 146.972 29.185 146.822 29.375C146.672 29.565 146.567 29.765 146.507 29.975V32.03C146.647 32.35 146.832 32.64 147.062 32.9C147.292 33.15 147.557 33.355 147.857 33.515C148.157 33.665 148.462 33.74 148.772 33.74ZM155.251 31.955V27.155H156.901V31.625C156.901 32.325 157.026 32.855 157.276 33.215C157.536 33.565 157.911 33.74 158.401 33.74C158.711 33.74 159.011 33.675 159.301 33.545C159.601 33.415 159.871 33.225 160.111 32.975C160.361 32.715 160.561 32.405 160.711 32.045V27.155H162.361V33.14C162.361 33.33 162.396 33.465 162.466 33.545C162.536 33.625 162.651 33.67 162.811 33.68V35C162.641 35.03 162.501 35.05 162.391 35.06C162.281 35.07 162.176 35.075 162.076 35.075C161.776 35.075 161.526 34.995 161.326 34.835C161.126 34.665 161.011 34.45 160.981 34.19L160.951 33.41C160.601 33.98 160.146 34.415 159.586 34.715C159.026 35.005 158.411 35.15 157.741 35.15C156.921 35.15 156.301 34.88 155.881 34.34C155.461 33.8 155.251 33.005 155.251 31.955ZM165.532 24.05H167.182V32.735C167.182 33.135 167.242 33.39 167.362 33.5C167.482 33.61 167.632 33.665 167.812 33.665C168.012 33.665 168.197 33.645 168.367 33.605C168.547 33.565 168.702 33.515 168.832 33.455L169.072 34.76C168.832 34.86 168.547 34.945 168.217 35.015C167.887 35.085 167.592 35.12 167.332 35.12C166.772 35.12 166.332 34.965 166.012 34.655C165.692 34.335 165.532 33.895 165.532 33.335V24.05ZM170.509 32.705C170.509 32.205 170.649 31.77 170.929 31.4C171.219 31.02 171.614 30.73 172.114 30.53C172.614 30.32 173.194 30.215 173.854 30.215C174.204 30.215 174.559 30.24 174.919 30.29C175.289 30.34 175.614 30.42 175.894 30.53V30.035C175.894 29.485 175.729 29.055 175.399 28.745C175.069 28.435 174.594 28.28 173.974 28.28C173.534 28.28 173.119 28.36 172.729 28.52C172.339 28.67 171.924 28.885 171.484 29.165L170.929 28.055C171.449 27.705 171.969 27.445 172.489 27.275C173.019 27.105 173.574 27.02 174.154 27.02C175.204 27.02 176.029 27.3 176.629 27.86C177.239 28.41 177.544 29.195 177.544 30.215V33.14C177.544 33.33 177.574 33.465 177.634 33.545C177.704 33.625 177.819 33.67 177.979 33.68V35C177.829 35.03 177.694 35.05 177.574 35.06C177.454 35.07 177.354 35.075 177.274 35.075C176.924 35.075 176.659 34.99 176.479 34.82C176.299 34.65 176.194 34.45 176.164 34.22L176.119 33.77C175.779 34.21 175.344 34.55 174.814 34.79C174.284 35.03 173.749 35.15 173.209 35.15C172.689 35.15 172.224 35.045 171.814 34.835C171.404 34.615 171.084 34.32 170.854 33.95C170.624 33.58 170.509 33.165 170.509 32.705ZM175.504 33.185C175.624 33.055 175.719 32.925 175.789 32.795C175.859 32.665 175.894 32.55 175.894 32.45V31.55C175.614 31.44 175.319 31.36 175.009 31.31C174.699 31.25 174.394 31.22 174.094 31.22C173.494 31.22 173.004 31.34 172.624 31.58C172.254 31.82 172.069 32.15 172.069 32.57C172.069 32.8 172.129 33.02 172.249 33.23C172.379 33.44 172.559 33.61 172.789 33.74C173.029 33.87 173.324 33.935 173.674 33.935C174.034 33.935 174.379 33.865 174.709 33.725C175.039 33.585 175.304 33.405 175.504 33.185ZM185.006 28.58C184.366 28.59 183.796 28.735 183.296 29.015C182.806 29.295 182.456 29.69 182.246 30.2V35H180.596V27.155H182.126V28.91C182.396 28.37 182.751 27.94 183.191 27.62C183.631 27.29 184.096 27.11 184.586 27.08C184.686 27.08 184.766 27.08 184.826 27.08C184.896 27.08 184.956 27.085 185.006 27.095V28.58Z" fill="white"/>
</g>
<defs>
<filter id="filter0_d_1_1899" x="0" y="0" width="251" height="596" filterUnits="userSpaceOnUse" color-interpolation-filters="sRGB">
<feFlood flood-opacity="0" result="BackgroundImageFix"/>
<feColorMatrix in="SourceAlpha" type="matrix" values="0 0 0 0 0 0 0 0 0 0 0 0 0 0 0 0 0 0 127 0" result="hardAlpha"/>
<feOffset dy="2"/>
<feGaussianBlur stdDeviation="6.5"/>
<feComposite in2="hardAlpha" operator="out"/>
<feColorMatrix type="matrix" values="0 0 0 0 0.294118 0 0 0 0 0.317647 0 0 0 0 0.388235 0 0 0 0.16 0"/>
<feBlend mode="normal" in2="BackgroundImageFix" result="effect1_dropShadow_1_1899"/>
<feBlend mode="normal" in="SourceGraphic" in2="effect1_dropShadow_1_1899" result="shape"/>
</filter>
<linearGradient id="paint0_linear_1_1899" x1="125.5" y1="11" x2="125.991" y2="45.5003" gradientUnits="userSpaceOnUse">
<stop stop-color="#0660D7"/>
<stop offset="1" stop-color="#0D88F6"/>
</linearGradient>
</defs>
</svg>
